<?xml version="1.0" standalone="no"?>
<!DOCTYPE svg PUBLIC "-//W3C//DTD SVG 20010904//EN" "http://www.w3.org/TR/2001/REC-SVG-20010904/DTD/svg10.dtd">
<svg version="1.0" xmlns="http://www.w3.org/2000/svg" width="512.000000pt" height="512.000000pt" viewBox="0 0 512.000000 512.000000" preserveAspectRatio="xMidYMid meet">

<g transform="translate(0.000000,512.000000) scale(0.100000,-0.100000)" fill="#000000" stroke="none">
<path d="M2275 4155 c-5 -2 -467 -74 -1025 -160 -558 -86 -1027 -160 -1041 -166 -15 -6 -31 -22 -38 -35 -16 -36 -16 -2912 0 -2948 7 -13 23 -29 38 -35 14 -6 480 -80 1036 -166 556 -85 1026 -158 1045 -161 28 -4 294 75 1316 395 704 220 1292 405 1306 412 14 6 31 22 37 36 16 34 16 1952 0 1986 -6 14 -23 30 -37 36 -51 24 -2584 811 -2605 810 -12 0 -26 -2 -32 -4z m1280 -543 l1240 -388 0 -904 0 -904 -1175 -367 c-646 -202 -1185 -370 -1197 -374 l-23 -5 0 1549 c0 1131 -3 1557 -11 1575 -16 35 -61 52 -98 37 -15 -7 -33 -24 -40 -37 -8 -18 -11 -447 -11 -1585 l0 -1559 -22 5 c-13 3 -214 34 -448 70 -234 35 -440 67 -457 70 l-33 6 0 1519 c0 836 3 1520 8 1521 4 0 232 35 507 79 275 43 505 78 510 79 6 0 568 -174 1250 -387z m-2435 -1292 c0 -1436 -1 -1490 -18 -1490 -20 0 -722 107 -760 115 l-22 5 0 1370 c0 754 1 1370 3 1371 18 5 741 117 765 118 l32 1 0 -1490z"/>
<path d="M2604 3668 c-12 -5 -27 -21 -33 -34 -16 -36 -16 -2593 0 -2628 7 -13 25 -30 40 -37 37 -15 82 2 98 37 16 35 16 2592 0 2627 -11 24 -48 48 -72 46 -7 0 -22 -5 -33 -11z"/>
<path d="M2924 3588 c-12 -5 -27 -21 -33 -34 -16 -36 -16 -2433 0 -2468 26 -55 112 -55 138 0 16 35 16 2432 0 2467 -11 24 -48 48 -72 46 -7 0 -22 -5 -33 -11z"/>
<path d="M3244 3508 c-12 -5 -27 -21 -33 -34 -16 -36 -16 -2273 0 -2308 26 -55 112 -55 138 0 16 35 16 2272 0 2307 -11 24 -48 48 -72 46 -7 0 -22 -5 -33 -11z"/>
<path d="M3564 3428 c-12 -5 -27 -21 -33 -34 -16 -35 -16 -2113 0 -2148 26 -55 112 -55 138 0 16 35 16 2113 0 2147 -11 24 -48 48 -72 46 -7 0 -22 -5 -33 -11z"/>
<path d="M3884 3348 c-12 -5 -27 -21 -33 -34 -16 -35 -16 -1953 0 -1988 26 -55 112 -55 138 0 16 35 16 1953 0 1987 -11 24 -48 48 -72 46 -7 0 -22 -5 -33 -11z"/>
<path d="M4204 3268 c-12 -5 -27 -21 -33 -34 -16 -35 -16 -1793 0 -1828 16 -35 61 -52 98 -37 15 7 33 24 40 37 16 35 16 1793 0 1827 -11 24 -48 48 -72 46 -7 0 -22 -5 -33 -11z"/>
<path d="M4524 3188 c-12 -5 -27 -21 -33 -34 -16 -35 -16 -1633 0 -1668 26 -55 112 -55 138 0 16 35 16 1633 0 1667 -11 24 -48 48 -72 46 -7 0 -22 -5 -33 -11z"/>
<path d="M1484 2548 c-38 -18 -44 -51 -44 -228 0 -185 6 -212 51 -231 37 -15 82 2 98 37 15 33 15 354 0 387 -11 24 -48 48 -72 46 -7 0 -22 -5 -33 -11z"/>
<path d="M844 2548 c-38 -18 -44 -51 -44 -228 0 -185 6 -212 51 -231 37 -15 82 2 98 37 15 33 15 354 0 387 -11 24 -48 48 -72 46 -7 0 -22 -5 -33 -11z"/>
</g>
</svg>
