<svg version="1.0" xmlns="http://www.w3.org/2000/svg"
 width="225pt"
 height="225pt"
 viewBox="0 0 225 225"
 preserveAspectRatio="xMidYMid meet">

<g transform="translate(0,225) scale(0.1,-0.1)" fill="#000000" stroke="none">
<path d="M1044 2050 
	c-96 -30 -178 -123 -193 -219 -33 -207 153 -375 350 -317 127 36 203 143 201 279 -2 145 -113 256 -262 263 -36 2 -79 -1 -96 -6z 
	m151 -212 
	c34 -40 33 -82 -4 -119 -41 -40 -91 -40 -132 0 -37 37 -38 79 -4 120 41 48 99 48 140 -1z"/>
<path d="M280 985 
	l0 -515 43 0 
    c62 0 221 -26 307 -50 141 -40 334 -143 444 -239 l48 -42 32 26 
	c138 113 328 217 466 255 87 24 246 50 308 50 
    l42 0 0 516 0 517 -87 -7 
    c-269 -22 -505 -119 -728 -300 
    l-30 -25 -68 54 c-203 163 -499 273 -739 275 
	l-38 0 0 -515z 
	m395 250 
    c132 -53 239 -126 377 -254 68 -64 77 -69 89 -54 37 45 215 193 277 230 90 54 195 98 288 122 
	l74 19 0 -328 0 -328 -47 -6 
	c-183 -26 -394 -112 -583 -238 -24 -17 -27 -16 -95 29 -143 93 -331 169 -497 201 
	l-88 16 0 327 0 327 68 -18 
    c37 -9 98 -30 137 -45z"/>
</g>
</svg>
