<?xml version="1.0" encoding="utf-8"?>
<!-- Generator: Adobe Illustrator 16.0.0, SVG Export Plug-In . SVG Version: 6.00 Build 0)  -->
<!DOCTYPE svg PUBLIC "-//W3C//DTD SVG 1.1//EN" "http://www.w3.org/Graphics/SVG/1.1/DTD/svg11.dtd">
<svg version="1.1" id="Layer_1" xmlns="http://www.w3.org/2000/svg" xmlns:xlink="http://www.w3.org/1999/xlink" x="0px" y="0px"
	 width="512px" height="512px" viewBox="0 0 512 512" enable-background="new 0 0 512 512" xml:space="preserve">
<path d="M256,32C132.281,32,32,132.281,32,256s100.281,224,224,224s224-100.281,224-224S379.719,32,256,32z M256,448
	c-105.875,0-192-86.125-192-192S150.125,64,256,64s192,86.125,192,192S361.875,448,256,448z"/>
<g>
	<polygon points="359.156,245.469 280.844,206.313 280.844,177.688 359.156,138.531 373.469,167.156 323.781,192 373.469,216.844 	
		"/>
</g>
<g>
	<polygon points="152.844,245.469 138.531,216.844 188.219,192 138.531,167.156 152.844,138.531 231.156,177.688 231.156,206.313 	
		"/>
</g>
<g>
	<path d="M393.594,348.813c7.063-5.313,8.5-15.344,3.219-22.406C363.719,282.313,311.094,256,256,256s-107.75,26.313-140.813,70.406
		c-5.313,7.063-3.875,17.094,3.188,22.406c7.094,5.281,17.125,3.844,22.438-3.219C167.875,309.531,210.938,288,256,288
		s88.156,21.531,115.188,57.594C374.344,349.781,379.156,352,384,352C387.344,352,390.719,350.969,393.594,348.813z"/>
</g>
</svg>
